<svg width="80" height="64" viewBox="0 0 80 64" fill="none" xmlns="http://www.w3.org/2000/svg">
<path d="M55.906 16.7646C54.109 17.5758 52.2052 18.1113 50.256 18.3538C52.3082 17.0891 53.8448 15.1057 54.582 12.77C52.68 13.9081 50.572 14.7365 48.328 15.1979C46.8475 13.5747 44.8857 12.4981 42.7473 12.1354C40.6088 11.7726 38.4134 12.1439 36.5019 13.1916C34.5903 14.2393 33.0697 15.9049 32.1761 17.9296C31.2825 19.9543 31.0659 22.2248 31.56 24.3887C23.38 23.9929 16.134 19.9635 11.28 13.8773C10.3976 15.4149 9.93733 17.1686 9.948 18.9526C9.948 22.4591 11.688 25.5411 14.324 27.3518C12.7617 27.3008 11.2339 26.8677 9.868 26.0886V26.2117C9.86711 28.542 10.6525 30.8008 12.091 32.6049C13.5295 34.4091 15.5324 35.6475 17.76 36.1099C16.3166 36.5065 14.8048 36.566 13.336 36.2842C13.9682 38.2897 15.1953 40.0428 16.846 41.2989C18.4967 42.5551 20.4887 43.2515 22.544 43.2911C19.0631 46.0921 14.765 47.6123 10.34 47.6076C9.56 47.6076 8.782 47.5604 8 47.4702C12.5114 50.432 17.757 52.0041 23.114 52C41.22 52 51.11 36.6287 51.11 23.3224C51.11 22.8918 51.11 22.4611 51.08 22.0305C53.012 20.6051 54.6785 18.8353 56 16.8056L55.906 16.7646Z" fill="#1DA1F2"/>
</svg>
